<svg xmlns="http://www.w3.org/2000/svg" version="1.1" xmlns:xlink="http://www.w3.org/1999/xlink" width="512" height="512" x="0" y="0" viewBox="0 0 64 64" style="enable-background:new 0 0 512 512" xml:space="preserve" class=""><g><path d="M49.515 14.501a5.188 5.188 0 1 0-5.189-5.189 5.194 5.194 0 0 0 5.189 5.189zm0-8.5a3.312 3.312 0 1 1-3.312 3.311 3.315 3.315 0 0 1 3.312-3.311zM55.03 39.795l-4.04-4.292a1.726 1.726 0 0 1-.458-1.41l.147-1.156 1.75 1.9a3.511 3.511 0 0 0 2.577 1.13h.016a3.503 3.503 0 0 0 2.706-5.706l-5.798-7.164.286-2.25a4.98 4.98 0 0 0-4.567-5.595l-.733-.056a4.95 4.95 0 0 0-2.751.588l-6.901 3.748a5.717 5.717 0 0 0-2.73 3.3l-2.808 8.797a3.407 3.407 0 0 0 1.356 3.853l-6.727 6.726-5.468-5.469a1.857 1.857 0 0 0-2.618.001L6.034 48.975a1.853 1.853 0 0 0 0 2.619l4.308 4.308a2.826 2.826 0 1 0 5.148 0l19.86-19.86a3.411 3.411 0 0 0 2.81-2.16l2.607-6.821-.873 6.584a6.06 6.06 0 0 0 .487 3.28l-5.78 17.56a4.153 4.153 0 0 0 2.949 5.33 4.233 4.233 0 0 0 1.015.125 4.128 4.128 0 0 0 3.912-2.811l4.649-13.58.074.064a5.801 5.801 0 0 1 1.973 3.995l.525 8.454a4.096 4.096 0 0 0 4.075 3.83c.077 0 .153-.001.229-.006a4.084 4.084 0 0 0 3.85-4.35l-.728-10.933a7.797 7.797 0 0 0-2.095-4.808zm1.144-8.276a1.503 1.503 0 0 1-1.161 2.448h-.008a1.485 1.485 0 0 1-1.106-.486l-2.89-3.139.572-4.498zm-36.596 6.74 5.363 5.363-1.653 1.653-5.363-5.363zm-3.067 3.067 5.363 5.363-7.798 7.799a2.835 2.835 0 0 0-2.32 0l-4.203-4.204zm-3.007 16.322a.85.85 0 0 1-1.176 0 .831.831 0 1 1 1.176 0zm27.08-1.168a2.153 2.153 0 0 1-4.082-1.37l5.326-16.181c.036.033.067.07.104.102l3.565 3.1zm14.753.71a2.07 2.07 0 0 1-1.445.7 2.105 2.105 0 0 1-2.198-1.953l-.525-8.453a7.817 7.817 0 0 0-2.656-5.38l-5.269-4.582a4.07 4.07 0 0 1-1.368-3.615l1.536-11.58-3.68 1.84-3.44 9.001a1.41 1.41 0 0 1-2.66-.932l2.806-8.797a3.724 3.724 0 0 1 1.78-2.149l6.9-3.747a2.952 2.952 0 0 1 1.648-.353l.733.056a2.981 2.981 0 0 1 2.732 3.349L48.548 33.84a3.726 3.726 0 0 0 .985 3.033l4.04 4.292a5.78 5.78 0 0 1 1.555 3.57l.728 10.932a2.064 2.064 0 0 1-.52 1.521z" fill="#000000" opacity="1" data-original="#000000"></path></g></svg>