<svg xmlns="http://www.w3.org/2000/svg" version="1.1" xmlns:xlink="http://www.w3.org/1999/xlink" width="512" height="512" x="0" y="0" viewBox="0 0 128 128" style="enable-background:new 0 0 512 512" xml:space="preserve" class=""><g><path d="M64 76.82a2 2 0 0 1-.85-.19l-62-29.17a2 2 0 0 1 0-3.62l62-29.18a2 2 0 0 1 1.7 0l62 29.18a2 2 0 0 1 0 3.62l-62 29.17a2 2 0 0 1-.85.19zM6.7 45.65l57.3 27 57.3-27L64 18.68z" fill="#000000" opacity="1" data-original="#000000" class=""></path><path d="M24 80a2 2 0 0 1-2-2V57a2 2 0 0 1 4 0v21a2 2 0 0 1-2 2zM104 80a2 2 0 0 1-2-2V57a2 2 0 0 1 4 0v21a2 2 0 0 1-2 2z" fill="#000000" opacity="1" data-original="#000000" class=""></path><path d="M64 100.53c-22.62 0-42-12.39-42-22.53a2 2 0 0 1 4 0c0 6.34 16 18.53 38 18.53S102 84.34 102 78a2 2 0 0 1 4 0c0 10.14-19.38 22.53-42 22.53z" fill="#000000" opacity="1" data-original="#000000" class=""></path><path d="M94 101a2 2 0 0 1-2-2V61.24L63.11 46.79a2 2 0 1 1 1.78-3.58l30 15A2 2 0 0 1 96 60v39a2 2 0 0 1-2 2z" fill="#000000" opacity="1" data-original="#000000" class=""></path><path d="M94 110a6 6 0 1 1 6-6 6 6 0 0 1-6 6zm0-8a2 2 0 1 0 2 2 2 2 0 0 0-2-2z" fill="#000000" opacity="1" data-original="#000000" class=""></path><path d="M97 122h-6a2 2 0 0 1-2-2.17l1-12a2 2 0 0 1 4 .15 2 2 0 0 1 4-.15l1 12a2 2 0 0 1-2 2.17zm-3.83-4h1.66l-.83-9.83a.76.76 0 0 1 0-.15.76.76 0 0 1 0 .15z" fill="#000000" opacity="1" data-original="#000000" class=""></path></g></svg>