<svg xmlns="http://www.w3.org/2000/svg" version="1.1" xmlns:xlink="http://www.w3.org/1999/xlink" width="512" height="512" x="0" y="0" viewBox="0 0 1331 1331.251" style="enable-background:new 0 0 512 512" xml:space="preserve" class=""><g><path d="M773.074 702.953c58.317-76.176 90.442-170.808 90.442-266.765 0-241.938-196.832-438.77-438.758-438.77-94.531 0-188.2 31.285-263.73 88.105-10.762 8.098-12.93 23.38-4.829 34.137 8.086 10.762 23.364 12.922 34.125 4.824 67.149-50.5 150.41-78.312 234.434-78.312 215.043 0 390.008 174.965 390.008 390.016 0 86.019-29.016 170.847-81.7 238.847-.03.031-.058.082-.09.121l-308.218 401.7-308.102-401.52c-.02-.035-.039-.078-.066-.106-52.785-68.042-81.852-152.94-81.852-239.042 0-68.372 18.067-135.805 52.262-195.012 6.73-11.66 2.727-26.567-8.926-33.293-11.652-6.735-26.57-2.73-33.3 8.918C6.32 283.414-14.013 359.26-14.013 436.188c0 95.968 32.114 190.59 90.45 266.777.074.11.136.215.214.32l268.48 349.89c-42.777 4.329-81.487 12.098-111.913 22.63-50.84 17.59-76.606 41.664-76.606 71.554 0 32.266 29.852 57.657 88.719 75.461 48.258 14.606 111.973 22.645 179.426 22.645 67.426 0 131.144-8.04 179.406-22.645 58.871-17.804 88.727-43.195 88.727-75.46 0-29.883-25.782-53.965-76.614-71.555-30.433-10.532-69.148-18.301-111.91-22.63l268.473-349.89c.086-.105.152-.222.234-.332zM594.86 1120.051c37.024 11.914 47.922 24.101 49.203 27.316-1.406 3.664-14.437 17.7-59.792 30.473-43.16 12.176-99.813 18.875-159.512 18.875-59.707 0-116.363-6.7-159.52-18.875-45.355-12.774-58.39-26.809-59.797-30.473 1.266-3.215 12.168-15.402 49.204-27.316 33.265-10.711 77.593-17.985 125.867-20.781l24.898 32.453c.102.136.211.242.313.363.39.488.8.957 1.226 1.414.23.254.457.488.688.723.383.37.777.714 1.172 1.074.304.254.605.52.902.762.074.058.133.105.203.168a27.08 27.08 0 0 0 1.711 1.199c.164.105.332.195.496.293.559.34 1.14.656 1.723.957.222.105.445.203.668.312.629.297 1.273.567 1.926.793.109.051.242.106.355.145.805.277 1.625.512 2.457.703.102.027.207.039.32.062.715.16 1.43.278 2.16.375.18.016.364.04.547.055a24.46 24.46 0 0 0 2.453.145h.036c.824 0 1.644-.063 2.472-.145.184-.016.356-.039.535-.055a25.842 25.842 0 0 0 2.165-.375c.105-.023.21-.035.316-.062a25.771 25.771 0 0 0 2.46-.703c.11-.04.227-.094.349-.145a20.336 20.336 0 0 0 1.933-.793c.215-.11.434-.195.66-.312.57-.301 1.153-.617 1.742-.957.157-.098.317-.188.473-.285a30.982 30.982 0 0 0 1.715-1.207c.074-.047.133-.11.195-.164.32-.247.602-.512.906-.766.403-.344.797-.7 1.172-1.07.235-.239.457-.473.692-.72.43-.464.84-.933 1.23-1.421.098-.121.215-.227.305-.352l24.898-32.464c48.282 2.796 92.598 10.07 125.875 20.78zm0 0" fill="#000000" opacity="1" data-original="#000000" class=""></path><path d="M730.84 612.91c30.98-53.652 47.363-114.762 47.363-176.722 0-194.895-158.555-353.454-353.445-353.454C229.855 82.734 71.3 241.293 71.3 436.188c0 194.89 158.554 353.449 353.457 353.449 61.945 0 123.066-16.375 176.715-47.367 11.656-6.72 15.66-21.637 8.925-33.297-6.73-11.649-21.644-15.653-33.296-8.918-46.262 26.707-98.942 40.832-152.344 40.832-168.02 0-304.707-136.692-304.707-304.7 0-168.011 136.687-304.699 304.707-304.699 168.004 0 304.695 136.688 304.695 304.7 0 53.402-14.121 106.085-40.82 152.347-6.738 11.66-2.75 26.559 8.914 33.297 11.656 6.73 26.574 2.738 33.293-8.922zM90.344 190.332c4.511 3.723 9.984 5.527 15.437 5.527 7.047 0 14.074-3.015 18.918-8.832l.34-.414c8.508-10.383 6.906-25.558-3.43-34.113-10.351-8.55-25.761-7-34.351 3.3l-.344.415c-8.5 10.39-6.914 25.558 3.43 34.117zm0 0" fill="#000000" opacity="1" data-original="#000000" class=""></path><path d="m650.8 640.492-.679.746c-8.988 10.008-8.172 25.422 1.84 34.414a24.317 24.317 0 0 0 16.289 6.246c6.672 0 13.328-2.722 18.137-8.085l.484-.516c9.047-9.957 8.32-25.383-1.637-34.445-9.972-9.051-25.382-8.309-34.433 1.64zM244.578 582.441c0 13.457 10.918 24.375 24.371 24.375h311.598c13.445 0 24.375-10.918 24.375-24.375 0-61.75-31.39-118.226-81.996-151.082 9.656-16.68 15.222-36.027 15.222-56.64v-44.52c0-62.539-50.867-113.398-113.39-113.398-62.54 0-113.414 50.86-113.414 113.398v44.52c0 20.613 5.554 39.96 15.222 56.64a179.995 179.995 0 0 0-81.988 151.082zm309.328-24.375H295.598c7.14-37.964 30.722-71.02 64.687-90.136 18.32 12.71 40.531 20.183 64.473 20.183 23.918 0 46.133-7.472 64.457-20.183 33.96 19.117 57.543 52.172 64.691 90.136zm-193.812-194.09c2.617.18 5.3.278 8.086.278 17.386 0 37.992-3.625 61.726-10.899 21.367-6.527 42.434-15.152 59.489-23.398 0 .078.003.156.003.242v44.52c0 17.933-7.347 34.172-19.187 45.898a22.463 22.463 0 0 0-1.945 1.867c-11.504 10.477-26.782 16.871-43.508 16.871-16.758 0-32.028-6.394-43.528-16.882a22.21 22.21 0 0 0-1.94-1.848c-11.845-11.734-19.196-27.973-19.196-45.906zm64.664-98.417c17.953 0 34.238 7.382 45.965 19.246-14.852 7.336-34.844 15.742-55.078 21.937-27.34 8.371-44.344 9.508-53.793 8.555 6.746-28.48 32.378-49.738 62.906-49.738zm0 0" fill="#000000" opacity="1" data-original="#000000" class=""></path></g></svg>