<svg xmlns="http://www.w3.org/2000/svg" version="1.1" xmlns:xlink="http://www.w3.org/1999/xlink" width="512" height="512" x="0" y="0" viewBox="0 0 512 512" style="enable-background:new 0 0 512 512" xml:space="preserve" class=""><g><path d="M458.71 477.528h31.79c7.73 0 14-6.26 14-14v-27.43c0-7.73-6.27-13.99-14-13.99h-469c-7.73 0-14 6.26-14 13.99v27.43c0 7.74 6.27 14 14 14h402.51M314.906 422.105v55.426M285.749 422.105l-29.195 55.426M229.735 422.105l-29.195 55.426M173.721 422.105l-29.195 55.426M117.707 422.105l-29.195 55.426M61.693 422.105l-29.195 55.426M487.936 169.254l-30.647-2.452a3.758 3.758 0 0 1-3.351-2.822 120.197 120.197 0 0 0-13.509-32.583 3.76 3.76 0 0 1 .372-4.368l19.946-23.416a8.377 8.377 0 0 0-.454-11.356l-22.436-22.436a8.378 8.378 0 0 0-11.356-.454l-23.416 19.946a3.76 3.76 0 0 1-4.368.372 120.152 120.152 0 0 0-32.583-13.509 3.758 3.758 0 0 1-2.822-3.351l-2.452-30.647a8.377 8.377 0 0 0-8.351-7.709h-31.73a8.377 8.377 0 0 0-8.351 7.709l-2.452 30.647a3.758 3.758 0 0 1-2.822 3.351 120.197 120.197 0 0 0-32.583 13.509 3.76 3.76 0 0 1-4.368-.372l-23.416-19.946a8.377 8.377 0 0 0-11.356.454l-22.436 22.436a8.378 8.378 0 0 0-.454 11.356l19.946 23.416a3.76 3.76 0 0 1 .372 4.368 120.152 120.152 0 0 0-13.509 32.583 3.758 3.758 0 0 1-3.351 2.822l-30.647 2.452a8.377 8.377 0 0 0-7.709 8.351v31.73a8.377 8.377 0 0 0 7.709 8.351L216 220.138a3.758 3.758 0 0 1 3.351 2.822 120.197 120.197 0 0 0 13.509 32.583 3.76 3.76 0 0 1-.372 4.368l-19.946 23.416a8.377 8.377 0 0 0 .454 11.356l22.436 22.436a8.378 8.378 0 0 0 11.356.454l23.416-19.946a3.76 3.76 0 0 1 4.368-.372 120.152 120.152 0 0 0 32.583 13.509 3.758 3.758 0 0 1 2.822 3.351l2.452 30.647a8.377 8.377 0 0 0 8.351 7.709h31.73a8.377 8.377 0 0 0 8.351-7.709l2.452-30.647a3.758 3.758 0 0 1 2.822-3.351 120.197 120.197 0 0 0 32.583-13.509 3.76 3.76 0 0 1 4.368.372l23.416 19.946a8.377 8.377 0 0 0 11.356-.454l22.436-22.436a8.378 8.378 0 0 0 .454-11.356l-19.946-23.416a3.76 3.76 0 0 1-.372-4.368 120.152 120.152 0 0 0 13.509-32.583 3.76 3.76 0 0 1 3.351-2.822l30.647-2.452a8.377 8.377 0 0 0 7.709-8.351v-31.73a8.378 8.378 0 0 0-7.71-8.351z" style="stroke-width:15;stroke-linecap:round;stroke-linejoin:round;stroke-miterlimit:10;" fill="none" stroke="#000000" stroke-width="15" stroke-linecap="round" stroke-linejoin="round" stroke-miterlimit="10" data-original="#000000" class=""></path><circle cx="336.645" cy="193.47" r="28.076" style="stroke-width:15;stroke-linecap:round;stroke-linejoin:round;stroke-miterlimit:10;" fill="none" stroke="#000000" stroke-width="15" stroke-linecap="round" stroke-linejoin="round" stroke-miterlimit="10" data-original="#000000" class=""></circle><path d="M302.43 119.418c10.4-4.82 21.99-7.51 34.21-7.51 45.05 0 81.56 36.52 81.56 81.56s-36.51 81.56-81.56 81.56c-45.04 0-81.55-36.52-81.55-81.56 0-20.37 7.47-38.99 19.81-53.28M190.339 323.476l-18.591-13.667c.542-3.445.83-6.975.83-10.572s-.288-7.127-.83-10.572l18.591-13.667a8.527 8.527 0 0 0 2.334-11.133l-13.16-22.793a8.525 8.525 0 0 0-10.808-3.545l-21.144 9.272a67.393 67.393 0 0 0-18.299-10.575l-2.541-22.936a8.527 8.527 0 0 0-8.474-7.588h-26.32a8.525 8.525 0 0 0-8.474 7.588l-2.541 22.936A67.392 67.392 0 0 0 62.613 246.8l-21.144-9.272a8.527 8.527 0 0 0-10.808 3.545l-13.16 22.793a8.526 8.526 0 0 0 2.334 11.133l18.591 13.667c-.542 3.445-.83 6.975-.83 10.573s.288 7.127.83 10.572l-18.591 13.667a8.527 8.527 0 0 0-2.334 11.133l13.16 22.793a8.526 8.526 0 0 0 10.808 3.545l21.144-9.272a67.422 67.422 0 0 0 18.299 10.576l2.541 22.936a8.527 8.527 0 0 0 8.474 7.588h26.32a8.525 8.525 0 0 0 8.474-7.588l2.541-22.936a67.392 67.392 0 0 0 18.299-10.576l21.144 9.272a8.527 8.527 0 0 0 10.808-3.545l13.16-22.793a8.529 8.529 0 0 0-2.334-11.135z" style="stroke-width:15;stroke-linecap:round;stroke-linejoin:round;stroke-miterlimit:10;" fill="none" stroke="#000000" stroke-width="15" stroke-linecap="round" stroke-linejoin="round" stroke-miterlimit="10" data-original="#000000" class=""></path><path d="M98.12 329.508c2.24.52 4.57.79 6.97.79 17.15 0 31.06-13.91 31.06-31.06 0-17.16-13.91-31.07-31.06-31.07-17.16 0-31.07 13.91-31.07 31.07 0 2.26.24 4.47.7 6.59" style="stroke-width:15;stroke-linecap:round;stroke-linejoin:round;stroke-miterlimit:10;" fill="none" stroke="#000000" stroke-width="15" stroke-linecap="round" stroke-linejoin="round" stroke-miterlimit="10" data-original="#000000" class=""></path></g></svg>